<?xml version="1.0" standalone="no"?>
<!DOCTYPE svg PUBLIC "-//W3C//DTD SVG 20010904//EN"
 "http://www.w3.org/TR/2001/REC-SVG-20010904/DTD/svg10.dtd">
<svg version="1.0" xmlns="http://www.w3.org/2000/svg"
 width="512.000000pt" height="512.000000pt" viewBox="0 0 512.000000 512.000000"
 preserveAspectRatio="xMidYMid meet">
<metadata>
Created by potrace 1.11, written by Peter Selinger 2001-2013
</metadata>
<g transform="translate(0.000000,512.000000) scale(0.100000,-0.100000)"
fill="#000000" stroke="none">
<path d="M2320 4630 c-430 -56 -777 -198 -1095 -448 -90 -71 -285 -266 -362
-362 -212 -266 -385 -668 -429 -995 -3 -27 -8 -59 -11 -70 -2 -11 -6 -103 -8
-205 -3 -164 1 -253 19 -363 3 -17 8 -50 12 -72 28 -176 135 -476 224 -629 22
-37 40 -70 40 -72 0 -3 27 -45 60 -94 232 -346 560 -618 939 -780 50 -21 91
-36 91 -33 0 3 6 1 13 -5 10 -9 124 -47 167 -57 8 -2 47 -11 85 -20 166 -39
272 -50 485 -50 208 0 293 9 450 45 261 60 499 159 710 298 339 221 628 559
783 916 136 310 188 571 182 906 -3 169 -6 218 -20 290 -3 14 -7 41 -10 60
-50 310 -217 677 -432 946 -87 110 -271 288 -379 370 -235 177 -509 307 -784
373 -91 22 -105 24 -220 42 -87 13 -429 19 -510 9z m180 -312 l-1 -197 -67 4
c-237 16 -444 77 -514 152 l-23 25 50 44 c127 112 204 142 420 160 39 4 71 7
72 8 1 0 15 1 32 1 l32 1 -1 -198z m400 166 c52 -8 114 -24 137 -35 58 -28
166 -130 159 -149 -9 -23 -98 -78 -169 -105 -97 -36 -205 -56 -374 -70 l-63
-5 0 194 c0 131 4 196 11 198 17 6 197 -11 299 -28z m-1132 -160 c10 -21 9
-28 -4 -41 -53 -53 -182 -282 -247 -438 -49 -117 -121 -352 -144 -465 -3 -14
-6 -29 -7 -35 -2 -5 -7 -32 -11 -60 -5 -27 -10 -53 -11 -57 -1 -5 -2 -13 -3
-19 -1 -12 -83 32 -176 95 -93 62 -188 165 -229 247 -20 39 -36 80 -36 90 0
27 110 168 213 271 107 108 218 199 332 274 87 56 283 164 301 164 6 0 16 -12
22 -26z m1664 -15 c279 -140 525 -343 711 -587 43 -55 48 -66 42 -95 -28 -128
-165 -274 -367 -390 -54 -31 -54 -31 -55 -14 -4 69 -83 370 -133 507 -78 213
-167 388 -267 528 -70 98 -52 111 69 51z m-132 -119 c26 -21 160 -280 210
-404 64 -162 155 -494 163 -593 2 -24 -5 -29 -68 -55 -93 -39 -277 -92 -400
-117 -131 -26 -156 -30 -309 -47 -17 -2 -93 -7 -168 -10 l-138 -7 0 535 0 535
94 7 c102 8 112 9 225 32 142 29 282 93 335 153 l19 21 15 -22 c9 -13 19 -25
22 -28z m-1340 -50 c95 -48 215 -79 405 -104 17 -3 54 -5 83 -5 l52 -1 0 -536
0 -536 -147 6 c-82 3 -157 8 -169 10 -11 2 -47 7 -80 10 -49 5 -158 24 -293
51 -77 15 -325 97 -365 121 -19 11 -19 14 -2 100 18 95 68 293 91 359 75 222
155 397 245 533 l53 81 34 -30 c19 -16 60 -43 93 -59z m-1110 -622 c0 -6 20
-41 45 -77 72 -109 202 -217 365 -303 l65 -34 -6 -45 c-45 -314 -44 -835 1
-1121 l7 -48 -51 -26 c-177 -91 -342 -234 -408 -352 l-32 -60 -35 57 c-109
178 -200 439 -246 696 -18 102 -24 384 -11 495 9 75 15 121 21 150 3 13 7 42
11 64 18 122 111 377 197 538 40 74 55 94 64 86 7 -6 13 -15 13 -20z m3495
-122 c144 -294 209 -572 209 -891 0 -358 -83 -669 -267 -1003 l-30 -53 -35 61
c-19 34 -64 93 -100 132 -63 66 -213 176 -295 214 l-38 18 7 51 c3 27 8 61 9
75 27 197 27 780 1 940 -3 14 -7 50 -11 80 -3 30 -7 63 -8 73 -1 13 15 28 53
49 107 60 195 124 262 190 66 65 128 151 142 196 12 36 29 14 101 -132z m-639
-401 c3 -33 8 -73 10 -90 24 -213 23 -679 -1 -875 -12 -90 -14 -102 -18 -106
-2 -2 -30 7 -63 20 -109 44 -265 89 -276 78 -5 -5 -8 -26 -6 -47 l3 -38 77
-22 c94 -27 241 -85 250 -99 4 -5 5 -13 2 -17 -2 -4 -6 -24 -10 -45 -11 -77
-63 -282 -99 -393 -69 -214 -145 -376 -248 -533 l-51 -77 -40 32 c-93 75 -194
118 -351 148 -108 21 -161 26 -172 16 -11 -12 -10 -67 1 -76 6 -5 36 -12 66
-16 158 -17 332 -81 398 -146 l33 -33 -38 -33 c-99 -87 -187 -115 -433 -139
l-66 -6 0 720 0 719 249 1 c137 0 251 3 255 6 7 7 6 205 -1 212 -3 3 -117 6
-254 7 l-248 2 -1 217 c0 120 -4 221 -8 225 -11 12 -189 12 -203 1 -10 -8 -13
-66 -13 -229 l0 -218 -264 1 c-145 0 -269 -3 -275 -6 -15 -10 -15 -202 0 -212
6 -3 130 -6 275 -6 l264 0 0 -720 0 -721 -82 7 c-46 3 -92 7 -103 10 -11 2
-40 7 -65 11 -25 4 -72 21 -105 37 -62 31 -185 123 -185 138 0 12 56 53 107
79 57 29 168 57 292 75 57 9 106 18 109 21 7 7 5 62 -3 75 -8 13 -101 4 -225
-22 -138 -29 -249 -74 -318 -129 -13 -10 -29 -16 -35 -13 -36 14 -186 292
-253 465 -65 171 -164 555 -149 579 6 10 113 50 226 85 78 24 87 29 91 53 5
40 -2 62 -20 62 -26 0 -211 -58 -303 -95 -14 -5 -18 5 -24 72 -4 42 -9 87 -11
98 -13 81 -20 551 -9 675 18 215 25 273 31 279 2 2 34 -7 71 -22 130 -49 306
-98 403 -112 24 -4 47 -8 50 -10 5 -3 41 -9 125 -20 28 -3 64 -8 80 -10 31 -4
222 -16 304 -19 l46 -2 3 -44 c4 -52 10 -57 56 -52 34 4 35 6 38 50 l3 46 55
2 c261 9 446 32 665 84 103 25 258 73 345 108 14 5 28 7 32 3 4 -3 10 -33 14
-66z m-2360 -1228 c6 -39 37 -180 50 -227 8 -30 17 -64 19 -75 7 -33 61 -196
85 -255 68 -172 151 -331 231 -440 36 -50 49 -75 44 -90 -3 -11 -13 -20 -21
-20 -21 0 -213 101 -306 162 -195 128 -422 343 -524 498 l-26 40 35 72 c57
120 162 221 323 313 77 44 86 46 90 22z m2564 -66 c3 -4 29 -24 57 -45 77 -55
150 -141 189 -224 l35 -72 -21 -35 c-12 -20 -27 -41 -33 -48 -7 -7 -34 -39
-62 -72 -123 -147 -305 -305 -473 -408 -102 -63 -268 -147 -276 -140 -3 3 15
32 40 64 166 216 323 603 390 961 l18 98 65 -37 c37 -20 68 -39 71 -42z"/>
</g>
</svg>
